<svg width="21" height="16" viewBox="0 0 21 16" fill="none" xmlns="http://www.w3.org/2000/svg">
<path d="M21 1.9006C20.2277 2.21303 19.3873 2.43788 18.5217 2.52545C19.4204 2.02471 20.0934 1.23362 20.4145 0.300601C19.5711 0.771108 18.6473 1.10104 17.6838 1.27575C17.2811 0.872024 16.7941 0.5504 16.2531 0.330915C15.7121 0.11143 15.1287 -0.00121132 14.5392 9.82343e-06C12.1543 9.82343e-06 10.2363 1.81303 10.2363 4.03788C10.2363 4.3503 10.2767 4.66273 10.3423 4.96332C6.77118 4.78817 3.58623 3.18817 1.46881 0.738471C1.083 1.3565 0.880818 2.06019 0.883307 2.77634C0.883307 4.17752 1.64295 5.41302 2.80135 6.13965C2.11869 6.11444 1.45201 5.93846 0.855546 5.62604V5.67575C0.855546 7.63787 2.33446 9.26391 4.30549 9.63787C3.93541 9.72803 3.5547 9.77415 3.17234 9.77515C2.8922 9.77515 2.62721 9.74912 2.35969 9.71361C2.90482 11.3136 4.49225 12.4757 6.38253 12.5136C4.90362 13.6 3.0512 14.2391 1.03978 14.2391C0.678885 14.2391 0.345752 14.2272 0 14.1894C1.90794 15.3373 4.17173 16 6.60966 16C14.5241 16 18.8548 9.85089 18.8548 4.51362C18.8548 4.33847 18.8548 4.16332 18.8422 3.98817C19.6801 3.41303 20.4145 2.7006 21 1.9006Z" fill="white"/>
</svg>
